<mxfile host="app.diagrams.net" modified="2022-06-08T23:07:24.488Z" agent="5.0 (Windows)" etag="7Da-tM7-W2fkeucODLBv" version="18.1.3" type="github">
  <diagram id="KXkWc4ArUbK7M-GSfEHP" name="Page-1">
    <mxGraphModel dx="981" dy="545" grid="0" gridSize="10" guides="1" tooltips="1" connect="1" arrows="1" fold="1" page="1" pageScale="1" pageWidth="827" pageHeight="1169" math="0" shadow="0">
      <root>
        <mxCell id="0" />
        <mxCell id="1" parent="0" />
        <mxCell id="W3OiotVBbQLUlcYrUQRN-1" value="Main app" style="rounded=0;whiteSpace=wrap;html=1;" vertex="1" parent="1">
          <mxGeometry x="344" y="297" width="120" height="60" as="geometry" />
        </mxCell>
        <mxCell id="W3OiotVBbQLUlcYrUQRN-2" value="Get results" style="rounded=0;whiteSpace=wrap;html=1;" vertex="1" parent="1">
          <mxGeometry x="344" y="420" width="120" height="60" as="geometry" />
        </mxCell>
        <mxCell id="W3OiotVBbQLUlcYrUQRN-3" value="Fill database" style="rounded=0;whiteSpace=wrap;html=1;" vertex="1" parent="1">
          <mxGeometry x="174" y="420" width="120" height="60" as="geometry" />
        </mxCell>
        <mxCell id="W3OiotVBbQLUlcYrUQRN-8" value="Edit database" style="rounded=0;whiteSpace=wrap;html=1;" vertex="1" parent="1">
          <mxGeometry x="514" y="420" width="120" height="60" as="geometry" />
        </mxCell>
        <mxCell id="W3OiotVBbQLUlcYrUQRN-9" value="" style="endArrow=classic;html=1;rounded=0;exitX=0;exitY=0.5;exitDx=0;exitDy=0;entryX=0.5;entryY=0;entryDx=0;entryDy=0;" edge="1" parent="1" source="W3OiotVBbQLUlcYrUQRN-1" target="W3OiotVBbQLUlcYrUQRN-3">
          <mxGeometry width="50" height="50" relative="1" as="geometry">
            <mxPoint x="387" y="316" as="sourcePoint" />
            <mxPoint x="437" y="266" as="targetPoint" />
            <Array as="points">
              <mxPoint x="234" y="327" />
            </Array>
          </mxGeometry>
        </mxCell>
        <mxCell id="W3OiotVBbQLUlcYrUQRN-11" value="" style="endArrow=classic;html=1;rounded=0;entryX=0.5;entryY=0;entryDx=0;entryDy=0;" edge="1" parent="1" target="W3OiotVBbQLUlcYrUQRN-2">
          <mxGeometry width="50" height="50" relative="1" as="geometry">
            <mxPoint x="405" y="357" as="sourcePoint" />
            <mxPoint x="520" y="378" as="targetPoint" />
          </mxGeometry>
        </mxCell>
        <mxCell id="W3OiotVBbQLUlcYrUQRN-12" value="" style="endArrow=classic;html=1;rounded=0;entryX=0.5;entryY=0;entryDx=0;entryDy=0;exitX=1;exitY=0.5;exitDx=0;exitDy=0;" edge="1" parent="1" source="W3OiotVBbQLUlcYrUQRN-1" target="W3OiotVBbQLUlcYrUQRN-8">
          <mxGeometry width="50" height="50" relative="1" as="geometry">
            <mxPoint x="405" y="358" as="sourcePoint" />
            <mxPoint x="437" y="266" as="targetPoint" />
            <Array as="points">
              <mxPoint x="574" y="327" />
            </Array>
          </mxGeometry>
        </mxCell>
        <mxCell id="W3OiotVBbQLUlcYrUQRN-15" value="" style="edgeStyle=orthogonalEdgeStyle;rounded=0;orthogonalLoop=1;jettySize=auto;html=1;" edge="1" parent="1" source="W3OiotVBbQLUlcYrUQRN-13" target="W3OiotVBbQLUlcYrUQRN-14">
          <mxGeometry relative="1" as="geometry">
            <Array as="points">
              <mxPoint x="366" y="790" />
              <mxPoint x="366" y="790" />
            </Array>
          </mxGeometry>
        </mxCell>
        <mxCell id="W3OiotVBbQLUlcYrUQRN-13" value="Начало" style="strokeWidth=2;html=1;shape=mxgraph.flowchart.terminator;whiteSpace=wrap;" vertex="1" parent="1">
          <mxGeometry x="317" y="703" width="100" height="60" as="geometry" />
        </mxCell>
        <mxCell id="W3OiotVBbQLUlcYrUQRN-17" value="" style="edgeStyle=orthogonalEdgeStyle;rounded=0;orthogonalLoop=1;jettySize=auto;html=1;" edge="1" parent="1" source="W3OiotVBbQLUlcYrUQRN-14" target="W3OiotVBbQLUlcYrUQRN-16">
          <mxGeometry relative="1" as="geometry" />
        </mxCell>
        <mxCell id="W3OiotVBbQLUlcYrUQRN-14" value="Выбор пункта" style="shape=parallelogram;html=1;strokeWidth=2;perimeter=parallelogramPerimeter;whiteSpace=wrap;rounded=1;arcSize=12;size=0.23;" vertex="1" parent="1">
          <mxGeometry x="286" y="805" width="162" height="60" as="geometry" />
        </mxCell>
        <mxCell id="W3OiotVBbQLUlcYrUQRN-32" value="" style="edgeStyle=orthogonalEdgeStyle;rounded=0;orthogonalLoop=1;jettySize=auto;html=1;startArrow=none;" edge="1" parent="1" source="W3OiotVBbQLUlcYrUQRN-55" target="W3OiotVBbQLUlcYrUQRN-31">
          <mxGeometry relative="1" as="geometry" />
        </mxCell>
        <mxCell id="W3OiotVBbQLUlcYrUQRN-16" value="Действие" style="strokeWidth=2;html=1;shape=mxgraph.flowchart.decision;whiteSpace=wrap;" vertex="1" parent="1">
          <mxGeometry x="317" y="909" width="100" height="100" as="geometry" />
        </mxCell>
        <mxCell id="W3OiotVBbQLUlcYrUQRN-18" value="" style="strokeWidth=2;html=1;shape=mxgraph.flowchart.annotation_2;align=left;labelPosition=right;pointerEvents=1;" vertex="1" parent="1">
          <mxGeometry x="473" y="909" width="50" height="100" as="geometry" />
        </mxCell>
        <mxCell id="W3OiotVBbQLUlcYrUQRN-21" value="" style="shape=waypoint;sketch=0;size=6;pointerEvents=1;points=[];fillColor=none;resizable=0;rotatable=0;perimeter=centerPerimeter;snapToPoint=1;" vertex="1" parent="1">
          <mxGeometry x="406" y="939" width="40" height="40" as="geometry" />
        </mxCell>
        <mxCell id="W3OiotVBbQLUlcYrUQRN-23" value="" style="shape=waypoint;sketch=0;size=6;pointerEvents=1;points=[];fillColor=none;resizable=0;rotatable=0;perimeter=centerPerimeter;snapToPoint=1;" vertex="1" parent="1">
          <mxGeometry x="417" y="939" width="40" height="40" as="geometry" />
        </mxCell>
        <mxCell id="W3OiotVBbQLUlcYrUQRN-24" value="" style="shape=waypoint;sketch=0;size=6;pointerEvents=1;points=[];fillColor=none;resizable=0;rotatable=0;perimeter=centerPerimeter;snapToPoint=1;" vertex="1" parent="1">
          <mxGeometry x="428" y="939" width="40" height="40" as="geometry" />
        </mxCell>
        <mxCell id="W3OiotVBbQLUlcYrUQRN-25" value="" style="shape=waypoint;sketch=0;size=6;pointerEvents=1;points=[];fillColor=none;resizable=0;rotatable=0;perimeter=centerPerimeter;snapToPoint=1;" vertex="1" parent="1">
          <mxGeometry x="439" y="939" width="40" height="40" as="geometry" />
        </mxCell>
        <mxCell id="W3OiotVBbQLUlcYrUQRN-26" value="" style="shape=waypoint;sketch=0;size=6;pointerEvents=1;points=[];fillColor=none;resizable=0;rotatable=0;perimeter=centerPerimeter;snapToPoint=1;" vertex="1" parent="1">
          <mxGeometry x="448" y="939" width="40" height="40" as="geometry" />
        </mxCell>
        <mxCell id="W3OiotVBbQLUlcYrUQRN-27" value="1. Заполнение базы" style="text;html=1;align=center;verticalAlign=middle;resizable=0;points=[];autosize=1;strokeColor=none;fillColor=none;" vertex="1" parent="1">
          <mxGeometry x="505" y="909.5" width="125" height="18" as="geometry" />
        </mxCell>
        <mxCell id="W3OiotVBbQLUlcYrUQRN-28" value="2. Редактирование базы" style="text;html=1;align=center;verticalAlign=middle;resizable=0;points=[];autosize=1;strokeColor=none;fillColor=none;" vertex="1" parent="1">
          <mxGeometry x="505" y="927.5" width="149" height="18" as="geometry" />
        </mxCell>
        <mxCell id="W3OiotVBbQLUlcYrUQRN-29" value="3. Выбор ситуации" style="text;html=1;align=center;verticalAlign=middle;resizable=0;points=[];autosize=1;strokeColor=none;fillColor=none;" vertex="1" parent="1">
          <mxGeometry x="505" y="945.5" width="115" height="18" as="geometry" />
        </mxCell>
        <mxCell id="W3OiotVBbQLUlcYrUQRN-30" value="4. Расчет рекомендаций" style="text;html=1;align=center;verticalAlign=middle;resizable=0;points=[];autosize=1;strokeColor=none;fillColor=none;" vertex="1" parent="1">
          <mxGeometry x="504.5" y="963.5" width="150" height="18" as="geometry" />
        </mxCell>
        <mxCell id="W3OiotVBbQLUlcYrUQRN-31" value="Конец" style="strokeWidth=2;html=1;shape=mxgraph.flowchart.terminator;whiteSpace=wrap;" vertex="1" parent="1">
          <mxGeometry x="317" y="1362" width="100" height="60" as="geometry" />
        </mxCell>
        <mxCell id="W3OiotVBbQLUlcYrUQRN-33" value="" style="verticalLabelPosition=bottom;verticalAlign=top;html=1;shape=process;whiteSpace=wrap;rounded=1;size=0.14;arcSize=6;" vertex="1" parent="1">
          <mxGeometry x="428" y="1041" width="100" height="37" as="geometry" />
        </mxCell>
        <mxCell id="W3OiotVBbQLUlcYrUQRN-34" value="" style="verticalLabelPosition=bottom;verticalAlign=top;html=1;shape=process;whiteSpace=wrap;rounded=1;size=0.14;arcSize=6;" vertex="1" parent="1">
          <mxGeometry x="428" y="1163" width="100" height="37" as="geometry" />
        </mxCell>
        <mxCell id="W3OiotVBbQLUlcYrUQRN-35" value="" style="verticalLabelPosition=bottom;verticalAlign=top;html=1;shape=process;whiteSpace=wrap;rounded=1;size=0.14;arcSize=6;" vertex="1" parent="1">
          <mxGeometry x="428" y="1104" width="100" height="37" as="geometry" />
        </mxCell>
        <mxCell id="W3OiotVBbQLUlcYrUQRN-36" value="" style="verticalLabelPosition=bottom;verticalAlign=top;html=1;shape=process;whiteSpace=wrap;rounded=1;size=0.14;arcSize=6;" vertex="1" parent="1">
          <mxGeometry x="428" y="1227" width="100" height="37" as="geometry" />
        </mxCell>
        <mxCell id="W3OiotVBbQLUlcYrUQRN-37" value="" style="endArrow=classic;html=1;rounded=0;entryX=0;entryY=0.5;entryDx=0;entryDy=0;" edge="1" parent="1" target="W3OiotVBbQLUlcYrUQRN-33">
          <mxGeometry width="50" height="50" relative="1" as="geometry">
            <mxPoint x="368" y="1060" as="sourcePoint" />
            <mxPoint x="436" y="1078" as="targetPoint" />
          </mxGeometry>
        </mxCell>
        <mxCell id="W3OiotVBbQLUlcYrUQRN-38" value="" style="endArrow=classic;html=1;rounded=0;entryX=0;entryY=0.5;entryDx=0;entryDy=0;" edge="1" parent="1">
          <mxGeometry width="50" height="50" relative="1" as="geometry">
            <mxPoint x="368" y="1122.71" as="sourcePoint" />
            <mxPoint x="428" y="1122.21" as="targetPoint" />
          </mxGeometry>
        </mxCell>
        <mxCell id="W3OiotVBbQLUlcYrUQRN-39" value="" style="endArrow=classic;html=1;rounded=0;entryX=0;entryY=0.5;entryDx=0;entryDy=0;" edge="1" parent="1">
          <mxGeometry width="50" height="50" relative="1" as="geometry">
            <mxPoint x="368" y="1181.71" as="sourcePoint" />
            <mxPoint x="428" y="1181.21" as="targetPoint" />
          </mxGeometry>
        </mxCell>
        <mxCell id="W3OiotVBbQLUlcYrUQRN-41" value="" style="endArrow=classic;html=1;rounded=0;entryX=0;entryY=0.5;entryDx=0;entryDy=0;" edge="1" parent="1">
          <mxGeometry width="50" height="50" relative="1" as="geometry">
            <mxPoint x="368" y="1245.71" as="sourcePoint" />
            <mxPoint x="428" y="1245.21" as="targetPoint" />
          </mxGeometry>
        </mxCell>
        <mxCell id="W3OiotVBbQLUlcYrUQRN-42" value="Fill" style="text;html=1;align=center;verticalAlign=middle;resizable=0;points=[];autosize=1;strokeColor=none;fillColor=none;" vertex="1" parent="1">
          <mxGeometry x="464" y="1048" width="26" height="18" as="geometry" />
        </mxCell>
        <mxCell id="W3OiotVBbQLUlcYrUQRN-43" value="Edit" style="text;html=1;align=center;verticalAlign=middle;resizable=0;points=[];autosize=1;strokeColor=none;fillColor=none;" vertex="1" parent="1">
          <mxGeometry x="462" y="1111" width="31" height="18" as="geometry" />
        </mxCell>
        <mxCell id="W3OiotVBbQLUlcYrUQRN-44" value="Select" style="text;html=1;align=center;verticalAlign=middle;resizable=0;points=[];autosize=1;strokeColor=none;fillColor=none;" vertex="1" parent="1">
          <mxGeometry x="455" y="1172.5" width="44" height="18" as="geometry" />
        </mxCell>
        <mxCell id="W3OiotVBbQLUlcYrUQRN-45" value="Calc" style="text;html=1;align=center;verticalAlign=middle;resizable=0;points=[];autosize=1;strokeColor=none;fillColor=none;" vertex="1" parent="1">
          <mxGeometry x="459.5" y="1236.5" width="35" height="18" as="geometry" />
        </mxCell>
        <mxCell id="W3OiotVBbQLUlcYrUQRN-46" value="A" style="ellipse;whiteSpace=wrap;html=1;aspect=fixed;" vertex="1" parent="1">
          <mxGeometry x="607" y="1128.5" width="45" height="45" as="geometry" />
        </mxCell>
        <mxCell id="W3OiotVBbQLUlcYrUQRN-48" value="" style="edgeStyle=orthogonalEdgeStyle;rounded=0;orthogonalLoop=1;jettySize=auto;html=1;" edge="1" parent="1" source="W3OiotVBbQLUlcYrUQRN-47" target="W3OiotVBbQLUlcYrUQRN-16">
          <mxGeometry relative="1" as="geometry" />
        </mxCell>
        <mxCell id="W3OiotVBbQLUlcYrUQRN-47" value="A" style="ellipse;whiteSpace=wrap;html=1;aspect=fixed;" vertex="1" parent="1">
          <mxGeometry x="229" y="936.5" width="45" height="45" as="geometry" />
        </mxCell>
        <mxCell id="W3OiotVBbQLUlcYrUQRN-49" value="" style="endArrow=none;html=1;rounded=0;" edge="1" parent="1">
          <mxGeometry width="50" height="50" relative="1" as="geometry">
            <mxPoint x="578" y="1246" as="sourcePoint" />
            <mxPoint x="578" y="1060" as="targetPoint" />
          </mxGeometry>
        </mxCell>
        <mxCell id="W3OiotVBbQLUlcYrUQRN-50" value="" style="endArrow=classic;html=1;rounded=0;exitX=1;exitY=0.5;exitDx=0;exitDy=0;" edge="1" parent="1" source="W3OiotVBbQLUlcYrUQRN-33">
          <mxGeometry width="50" height="50" relative="1" as="geometry">
            <mxPoint x="328" y="1164" as="sourcePoint" />
            <mxPoint x="578" y="1060" as="targetPoint" />
          </mxGeometry>
        </mxCell>
        <mxCell id="W3OiotVBbQLUlcYrUQRN-51" value="" style="endArrow=classic;html=1;rounded=0;exitX=1;exitY=0.5;exitDx=0;exitDy=0;" edge="1" parent="1">
          <mxGeometry width="50" height="50" relative="1" as="geometry">
            <mxPoint x="528" y="1122.25" as="sourcePoint" />
            <mxPoint x="578" y="1122.75" as="targetPoint" />
          </mxGeometry>
        </mxCell>
        <mxCell id="W3OiotVBbQLUlcYrUQRN-52" value="" style="endArrow=classic;html=1;rounded=0;exitX=1;exitY=0.5;exitDx=0;exitDy=0;" edge="1" parent="1">
          <mxGeometry width="50" height="50" relative="1" as="geometry">
            <mxPoint x="528" y="1181.25" as="sourcePoint" />
            <mxPoint x="578" y="1181.75" as="targetPoint" />
          </mxGeometry>
        </mxCell>
        <mxCell id="W3OiotVBbQLUlcYrUQRN-53" value="" style="endArrow=classic;html=1;rounded=0;exitX=1;exitY=0.5;exitDx=0;exitDy=0;" edge="1" parent="1">
          <mxGeometry width="50" height="50" relative="1" as="geometry">
            <mxPoint x="528" y="1245.25" as="sourcePoint" />
            <mxPoint x="578" y="1245.75" as="targetPoint" />
          </mxGeometry>
        </mxCell>
        <mxCell id="W3OiotVBbQLUlcYrUQRN-54" value="" style="endArrow=classic;html=1;rounded=0;entryX=0;entryY=0.5;entryDx=0;entryDy=0;" edge="1" parent="1" target="W3OiotVBbQLUlcYrUQRN-46">
          <mxGeometry width="50" height="50" relative="1" as="geometry">
            <mxPoint x="578" y="1151" as="sourcePoint" />
            <mxPoint x="538" y="1151" as="targetPoint" />
          </mxGeometry>
        </mxCell>
        <mxCell id="W3OiotVBbQLUlcYrUQRN-55" value="Выход" style="shape=parallelogram;perimeter=parallelogramPerimeter;whiteSpace=wrap;html=1;fixedSize=1;" vertex="1" parent="1">
          <mxGeometry x="312.75" y="1281" width="108.5" height="44" as="geometry" />
        </mxCell>
        <mxCell id="W3OiotVBbQLUlcYrUQRN-57" value="" style="edgeStyle=orthogonalEdgeStyle;rounded=0;orthogonalLoop=1;jettySize=auto;html=1;endArrow=none;" edge="1" parent="1" source="W3OiotVBbQLUlcYrUQRN-16" target="W3OiotVBbQLUlcYrUQRN-55">
          <mxGeometry relative="1" as="geometry">
            <mxPoint x="367" y="1008.9999999999998" as="sourcePoint" />
            <mxPoint x="367" y="1362.0000000000002" as="targetPoint" />
          </mxGeometry>
        </mxCell>
        <mxCell id="W3OiotVBbQLUlcYrUQRN-59" value="1" style="text;html=1;align=center;verticalAlign=middle;resizable=0;points=[];autosize=1;strokeColor=none;fillColor=none;" vertex="1" parent="1">
          <mxGeometry x="400" y="1041" width="17" height="18" as="geometry" />
        </mxCell>
        <mxCell id="W3OiotVBbQLUlcYrUQRN-61" value="2" style="text;html=1;align=center;verticalAlign=middle;resizable=0;points=[];autosize=1;strokeColor=none;fillColor=none;" vertex="1" parent="1">
          <mxGeometry x="400" y="1099" width="17" height="18" as="geometry" />
        </mxCell>
        <mxCell id="W3OiotVBbQLUlcYrUQRN-62" value="3" style="text;html=1;align=center;verticalAlign=middle;resizable=0;points=[];autosize=1;strokeColor=none;fillColor=none;" vertex="1" parent="1">
          <mxGeometry x="400" y="1160" width="17" height="18" as="geometry" />
        </mxCell>
        <mxCell id="W3OiotVBbQLUlcYrUQRN-63" value="4" style="text;html=1;align=center;verticalAlign=middle;resizable=0;points=[];autosize=1;strokeColor=none;fillColor=none;" vertex="1" parent="1">
          <mxGeometry x="400" y="1225" width="17" height="18" as="geometry" />
        </mxCell>
        <mxCell id="W3OiotVBbQLUlcYrUQRN-64" value="5" style="text;html=1;align=center;verticalAlign=middle;resizable=0;points=[];autosize=1;strokeColor=none;fillColor=none;" vertex="1" parent="1">
          <mxGeometry x="367" y="1264" width="17" height="18" as="geometry" />
        </mxCell>
        <mxCell id="W3OiotVBbQLUlcYrUQRN-65" value="5. Выход" style="text;html=1;align=center;verticalAlign=middle;resizable=0;points=[];autosize=1;strokeColor=none;fillColor=none;" vertex="1" parent="1">
          <mxGeometry x="505" y="981.5" width="59" height="18" as="geometry" />
        </mxCell>
      </root>
    </mxGraphModel>
  </diagram>
</mxfile>
